<?xml version="1.0" encoding="utf-8"?>
<!-- Generator: Adobe Illustrator 19.0.0, SVG Export Plug-In . SVG Version: 6.00 Build 0)  -->
<svg version="1.1" id="Layer_1" xmlns="http://www.w3.org/2000/svg" xmlns:xlink="http://www.w3.org/1999/xlink" x="0px" y="0px"
	 viewBox="-221.9 423 90 89.9" style="enable-background:new -221.9 423 90 89.9;" xml:space="preserve">
<style type="text/css">
	.st0{fill:#4C4C4C;}
</style>
<path class="st0" d="M-176.9,423c-24.9,0-45,20.1-45,45c0,24.9,20.1,45,45,45s45-20.1,45-45C-131.9,443.1-152.1,423-176.9,423
	 M-176.9,509.4c-9.7,0-18.7-3.4-25.8-9c1.2-0.5,2.9-1.2,3.8-1.5c2.6-0.9,5.3-1.6,8.1-2.2c3.8-0.7,3.3-2.5,3.5-6.4
	c0-0.6,0.9-4.9,0.3-5.2c-2.5-1.2-3.2-5.4-3.3-7.8c-0.1-1.4-0.1-2.2-1-3.2c-0.7-0.9-1.3-1.9-1.8-3c-1.1-2.2-2.4-5.5-1.2-7.9
	c0.3-0.5,0.6-1,0.7-1.6c0.3-0.9-0.4-1.8-0.5-2.8c-0.2-1.2-0.3-2.3-0.4-3.5c-0.3-2.2-0.4-4.9-0.1-7.1c0.3-2.4,2.3-4.6,3.9-6.3
	c4-4.1,10.8-7.2,16.7-5.9c6.2,1.3,12.9,3.8,14.3,10.7c0.5,2.6,0.6,5.2,0.3,7.8c-0.2,1.7-0.8,3.4-0.8,5.1c0,1.3,0.9,2.4,1.1,3.7
	c0.2,1.3-0.4,3.4-0.8,4.7c-0.5,1.7-0.9,3.5-1.8,5.1c-0.8,1.5-1.7,2.3-1.9,4c-0.2,2.4-0.6,6.4-3.1,7.6c-0.6,0.3,0.2,5.1,0.2,5.6
	c0.2,3.9,1.5,5.7,5.3,6.4c2.7,0.5,5.4,1.2,8.1,2.2c0.5,0.2,1.6,0.7,2.6,1.1C-157.8,505.9-166.9,509.4-176.9,509.4"/>
</svg>
