<?xml version="1.0" encoding="UTF-8" standalone="no"?>
<svg width="95px" height="26px" viewBox="0 0 95 26" version="1.1" xmlns="http://www.w3.org/2000/svg" xmlns:xlink="http://www.w3.org/1999/xlink" xmlns:sketch="http://www.bohemiancoding.com/sketch/ns">
    <!-- Generator: Sketch 3.3.2 (12043) - http://www.bohemiancoding.com/sketch -->
    <title>Imported Layers</title>
    <desc>Created with Sketch.</desc>
    <defs></defs>
    <g id="Welcome" stroke="none" stroke-width="1" fill="none" fill-rule="evenodd" sketch:type="MSPage">
        <g id="Imported-Layers" sketch:type="MSLayerGroup">
            <path d="M12.653,25.472 L12.653,25.472 C5.757,25.472 0.115,19.83 0.115,12.934 C0.115,6.038 5.757,0.396 12.653,0.396 C19.549,0.396 25.191,6.038 25.191,12.934 C25.191,19.83 19.549,25.472 12.653,25.472" id="Fill-1" fill="#FF401F" sketch:type="MSShapeGroup"></path>
            <path d="M7.23,19.143 L7.23,14.119 L2.491,6.498 L6.795,6.498 L9.145,10.763 L11.458,6.498 L15.762,6.498 L11.06,14.119 L11.06,19.143 L7.23,19.143" id="Fill-2" fill="#FFFFFF" sketch:type="MSShapeGroup"></path>
            <path d="M12.521,14.555 C12.521,11.996 14.417,9.759 17.659,9.759 C20.92,9.759 22.816,11.996 22.816,14.555 C22.816,17.115 20.92,19.371 17.659,19.371 C14.417,19.371 12.521,17.115 12.521,14.555 L12.521,14.555 Z M19.308,14.555 C19.308,13.55 18.72,12.773 17.659,12.773 C16.616,12.773 16.028,13.55 16.028,14.555 C16.028,15.579 16.616,16.356 17.659,16.356 C18.72,16.356 19.308,15.579 19.308,14.555 L19.308,14.555 Z" id="Fill-3" fill="#FFFFFF" sketch:type="MSShapeGroup"></path>
            <path d="M34.075,19.157 L32.331,15.176 L30.947,15.176 L30.947,19.157 L27.117,19.157 L27.117,6.512 L33.867,6.512 C36.824,6.512 38.417,8.483 38.417,10.854 C38.417,13.033 37.146,14.19 36.141,14.683 L38.435,19.157 L34.075,19.157 L34.075,19.157 Z M34.53,10.834 C34.53,10.152 33.923,9.849 33.278,9.849 L30.947,9.849 L30.947,11.839 L33.278,11.839 C33.923,11.839 34.53,11.536 34.53,10.834 L34.53,10.834 Z" id="Fill-4" fill="#FF401F" sketch:type="MSShapeGroup"></path>
            <path d="M38.446,14.57 C38.446,11.915 40.474,9.773 43.432,9.773 C46.124,9.773 48.19,11.707 48.19,14.93 L48.19,15.631 L41.972,15.631 C42.162,16.219 42.825,16.788 43.944,16.788 C44.456,16.788 45.593,16.541 46.048,16.143 L47.451,18.247 C46.541,19.025 44.91,19.385 43.545,19.385 C40.683,19.385 38.446,17.584 38.446,14.57 L38.446,14.57 Z M43.432,12.37 C42.389,12.37 42.047,13.053 41.934,13.469 L44.948,13.469 C44.854,13.071 44.531,12.37 43.432,12.37 L43.432,12.37 Z" id="Fill-5" fill="#FF401F" sketch:type="MSShapeGroup"></path>
            <path d="M52.252,18.19 L52.252,22.646 L48.84,22.646 L48.84,10 L52.252,10 L52.252,10.967 C52.992,10.095 53.883,9.773 54.831,9.773 C57.106,9.773 58.85,11.441 58.85,14.57 C58.85,17.716 57.106,19.385 54.831,19.385 C53.883,19.385 53.011,19.062 52.252,18.19 L52.252,18.19 Z M55.362,14.57 C55.362,13.432 54.565,12.787 53.655,12.787 C53.219,12.787 52.575,13.015 52.252,13.413 L52.252,15.745 C52.556,16.124 53.219,16.37 53.655,16.37 C54.565,16.37 55.362,15.726 55.362,14.57 L55.362,14.57 Z" id="Fill-6" fill="#FF401F" sketch:type="MSShapeGroup"></path>
            <path d="M59.539,14.57 C59.539,12.01 61.435,9.773 64.677,9.773 C67.938,9.773 69.834,12.01 69.834,14.57 C69.834,17.129 67.938,19.385 64.677,19.385 C61.435,19.385 59.539,17.129 59.539,14.57 L59.539,14.57 Z M66.326,14.57 C66.326,13.565 65.739,12.787 64.677,12.787 C63.634,12.787 63.047,13.565 63.047,14.57 C63.047,15.593 63.634,16.37 64.677,16.37 C65.739,16.37 66.326,15.593 66.326,14.57 L66.326,14.57 Z" id="Fill-7" fill="#FF401F" sketch:type="MSShapeGroup"></path>
            <path d="M70.418,19.157 L70.418,10 L73.83,10 L73.83,11.005 C74.399,10.341 75.594,9.734 76.637,9.734 L76.637,12.996 C76.466,12.939 76.182,12.901 75.86,12.901 C75.139,12.901 74.21,13.091 73.83,13.546 L73.83,19.157 L70.418,19.157" id="Fill-8" fill="#FF401F" sketch:type="MSShapeGroup"></path>
            <path d="M78.517,16.503 L78.517,12.958 L77,12.958 L77,10 L78.517,10 L78.517,7.498 L81.93,7.498 L81.93,10 L83.788,10 L83.788,12.958 L81.93,12.958 L81.93,15.517 C81.93,15.991 82.233,16.37 82.688,16.37 C82.992,16.37 83.295,16.275 83.371,16.2 L83.977,18.778 C83.617,19.1 82.821,19.385 81.664,19.385 C79.636,19.385 78.517,18.418 78.517,16.503" id="Fill-9" fill="#FF401F" sketch:type="MSShapeGroup"></path>
            <path d="M84.437,14.57 C84.437,12.01 86.332,9.773 89.574,9.773 C92.835,9.773 94.731,12.01 94.731,14.57 C94.731,17.129 92.835,19.385 89.574,19.385 C86.332,19.385 84.437,17.129 84.437,14.57 L84.437,14.57 Z M91.224,14.57 C91.224,13.565 90.636,12.787 89.574,12.787 C88.531,12.787 87.944,13.565 87.944,14.57 C87.944,15.593 88.531,16.37 89.574,16.37 C90.636,16.37 91.224,15.593 91.224,14.57 L91.224,14.57 Z" id="Fill-10" fill="#FF401F" sketch:type="MSShapeGroup"></path>
        </g>
    </g>
</svg>